<svg xmlns="http://www.w3.org/2000/svg" xmlns:xlink="http://www.w3.org/1999/xlink" width="200" zoomAndPan="magnify" viewBox="0 0 150 157.92" height="200" preserveAspectRatio="xMidYMid meet" version="1.0"><defs><g/><clipPath id="2b357f52e2"><path d="M 0.0390625 0 L 149.960938 0 L 149.960938 149.925781 L 0.0390625 149.925781 Z M 0.0390625 0 " clip-rule="nonzero"/></clipPath><clipPath id="8c1918cffc"><path d="M 25 0 L 138 0 L 138 149.925781 L 25 149.925781 Z M 25 0 " clip-rule="nonzero"/></clipPath><clipPath id="df40af45bc"><rect x="0" width="113" y="0" height="150"/></clipPath></defs><g clip-path="url(#2b357f52e2)"><path fill="#ffffff" d="M 0.0390625 0 L 149.960938 0 L 149.960938 149.925781 L 0.0390625 149.925781 Z M 0.0390625 0 " fill-opacity="1" fill-rule="nonzero"/><path fill="#c8ec43" d="M 0.0390625 0 L 149.960938 0 L 149.960938 149.925781 L 0.0390625 149.925781 Z M 0.0390625 0 " fill-opacity="1" fill-rule="nonzero"/></g><g clip-path="url(#8c1918cffc)"><g transform="matrix(1, 0, 0, 1, 25, 0.000000000000004653)"><g clip-path="url(#df40af45bc)"><g fill="#f1e8d7" fill-opacity="1"><g transform="translate(2.044528, 146.100181)"><g><path d="M 35.21875 -4.078125 C 29.789062 -5.972656 25.109375 -10.242188 21.171875 -16.890625 C 17.234375 -23.535156 13.769531 -33.101562 10.78125 -45.59375 C 9.289062 -51.832031 7.664062 -59.703125 5.90625 -69.203125 C 4.132812 -78.835938 2.164062 -90.4375 0 -104 L 0 -105.03125 C 0 -105.976562 0.203125 -107.0625 0.609375 -108.28125 C 1.015625 -109.90625 1.625 -111.265625 2.4375 -112.359375 C 3.394531 -113.578125 4.6875 -114.523438 6.3125 -115.203125 C 7.800781 -116.015625 9.492188 -116.351562 11.390625 -116.21875 C 13.160156 -116.21875 14.65625 -115.945312 15.875 -115.40625 C 17.09375 -114.726562 18.382812 -113.710938 19.75 -112.359375 C 20.832031 -111.128906 21.507812 -109.769531 21.78125 -108.28125 C 22.1875 -106.925781 23.132812 -101.429688 24.625 -91.796875 C 25.976562 -83.242188 27.335938 -75.441406 28.703125 -68.390625 C 30.054688 -61.328125 31.273438 -55.628906 32.359375 -51.296875 C 33.847656 -45.316406 35.476562 -40.023438 37.25 -35.421875 C 39.007812 -30.671875 40.363281 -27.957031 41.3125 -27.28125 C 42.269531 -26.726562 44.035156 -28.625 46.609375 -32.96875 C 49.191406 -37.3125 51.5 -42.265625 53.53125 -47.828125 C 57.195312 -57.597656 60.179688 -68.453125 62.484375 -80.390625 C 64.660156 -92.203125 66.425781 -105.910156 67.78125 -121.515625 C 68.050781 -126.398438 68.320312 -129.519531 68.59375 -130.875 C 68.863281 -132.226562 69.335938 -133.445312 70.015625 -134.53125 C 72.179688 -137.789062 75.300781 -139.421875 79.375 -139.421875 C 83.3125 -139.421875 86.363281 -137.722656 88.53125 -134.328125 C 89.351562 -133.109375 89.832031 -132.09375 89.96875 -131.28125 C 90.101562 -130.738281 90.171875 -129.65625 90.171875 -128.03125 L 90.171875 -125.375 C 90.035156 -120.757812 89.554688 -114.179688 88.734375 -105.640625 C 87.785156 -96.953125 86.769531 -89.488281 85.6875 -83.25 C 83.382812 -69.8125 80.332031 -57.394531 76.53125 -46 C 72.726562 -34.46875 68.585938 -25.304688 64.109375 -18.515625 C 62.347656 -15.941406 60.109375 -13.363281 57.390625 -10.78125 C 54.679688 -8.34375 52.238281 -6.582031 50.0625 -5.5 C 48.03125 -4.414062 45.523438 -3.734375 42.546875 -3.453125 L 40.296875 -3.453125 C 38.398438 -3.453125 36.707031 -3.660156 35.21875 -4.078125 Z M 35.21875 -4.078125 "/></g></g></g></g></g></g></svg>