<svg xmlns="http://www.w3.org/2000/svg" xmlns:xlink="http://www.w3.org/1999/xlink" width="300" zoomAndPan="magnify" viewBox="0 0 224.87999 74.999997" height="100" preserveAspectRatio="xMidYMid meet" version="1.0"><defs><g/><clipPath id="b5e0a29bfd"><path d="M 6 4 L 223 4 L 223 74.980469 L 6 74.980469 Z M 6 4 " clip-rule="nonzero"/></clipPath><clipPath id="c289fcd1c3"><rect x="0" width="217" y="0" height="71"/></clipPath></defs><g clip-path="url(#b5e0a29bfd)"><g transform="matrix(1, 0, 0, 1, 6, 4)"><g clip-path="url(#c289fcd1c3)"><g fill="#c8ec43" fill-opacity="1"><g transform="translate(1.083523, 54.344885)"><g><path d="M 10.890625 -1.265625 C 9.210938 -1.847656 7.765625 -3.164062 6.546875 -5.21875 C 5.328125 -7.269531 4.253906 -10.226562 3.328125 -14.09375 C 2.867188 -16.019531 2.367188 -18.453125 1.828125 -21.390625 C 1.273438 -24.367188 0.664062 -27.953125 0 -32.140625 L 0 -32.46875 C 0 -32.757812 0.0625 -33.09375 0.1875 -33.46875 C 0.3125 -33.96875 0.5 -34.390625 0.75 -34.734375 C 1.050781 -35.109375 1.453125 -35.398438 1.953125 -35.609375 C 2.410156 -35.859375 2.929688 -35.960938 3.515625 -35.921875 C 4.066406 -35.921875 4.53125 -35.835938 4.90625 -35.671875 C 5.28125 -35.460938 5.679688 -35.148438 6.109375 -34.734375 C 6.441406 -34.347656 6.648438 -33.925781 6.734375 -33.46875 C 6.859375 -33.050781 7.148438 -31.351562 7.609375 -28.375 C 8.023438 -25.726562 8.445312 -23.316406 8.875 -21.140625 C 9.289062 -18.953125 9.664062 -17.191406 10 -15.859375 C 10.457031 -14.003906 10.960938 -12.367188 11.515625 -10.953125 C 12.054688 -9.484375 12.472656 -8.644531 12.765625 -8.4375 C 13.066406 -8.257812 13.613281 -8.84375 14.40625 -10.1875 C 15.207031 -11.53125 15.921875 -13.0625 16.546875 -14.78125 C 17.679688 -17.800781 18.601562 -21.15625 19.3125 -24.84375 C 19.988281 -28.5 20.535156 -32.738281 20.953125 -37.5625 C 21.035156 -39.070312 21.117188 -40.035156 21.203125 -40.453125 C 21.285156 -40.867188 21.429688 -41.242188 21.640625 -41.578125 C 22.304688 -42.585938 23.269531 -43.09375 24.53125 -43.09375 C 25.75 -43.09375 26.691406 -42.566406 27.359375 -41.515625 C 27.617188 -41.140625 27.769531 -40.828125 27.8125 -40.578125 C 27.851562 -40.410156 27.875 -40.078125 27.875 -39.578125 L 27.875 -38.75 C 27.832031 -37.320312 27.679688 -35.289062 27.421875 -32.65625 C 27.128906 -29.96875 26.816406 -27.660156 26.484375 -25.734375 C 25.773438 -21.578125 24.832031 -17.738281 23.65625 -14.21875 C 22.476562 -10.65625 21.195312 -7.820312 19.8125 -5.71875 C 19.269531 -4.925781 18.578125 -4.128906 17.734375 -3.328125 C 16.898438 -2.578125 16.144531 -2.035156 15.46875 -1.703125 C 14.84375 -1.367188 14.070312 -1.15625 13.15625 -1.0625 L 12.453125 -1.0625 C 11.867188 -1.0625 11.347656 -1.128906 10.890625 -1.265625 Z M 10.890625 -1.265625 "/></g></g></g><g fill="#c8ec43" fill-opacity="1"><g transform="translate(34.705923, 54.344885)"><g><path d="M 17.046875 -32.078125 C 18.847656 -31.285156 20.335938 -30.15625 21.515625 -28.6875 C 22.691406 -27.21875 23.507812 -25.4375 23.96875 -23.34375 C 24.300781 -22.082031 24.46875 -20.925781 24.46875 -19.875 C 24.46875 -18.832031 24.300781 -17.597656 23.96875 -16.171875 C 23.59375 -14.453125 23.066406 -12.984375 22.390625 -11.765625 C 21.765625 -10.585938 20.863281 -9.429688 19.6875 -8.296875 C 18.09375 -6.796875 16.226562 -5.789062 14.09375 -5.28125 C 13.207031 -5.070312 12.367188 -4.988281 11.578125 -5.03125 C 10.398438 -5.03125 9.265625 -5.238281 8.171875 -5.65625 C 6.617188 -6.289062 5.28125 -7.320312 4.15625 -8.75 C 3.019531 -10.175781 2.222656 -11.8125 1.765625 -13.65625 C 1.472656 -14.957031 1.304688 -16.148438 1.265625 -17.234375 C 1.265625 -18.328125 1.410156 -19.628906 1.703125 -21.140625 C 1.992188 -22.609375 2.347656 -23.90625 2.765625 -25.03125 C 3.179688 -26.207031 3.769531 -27.445312 4.53125 -28.75 C 5.789062 -30.84375 6.859375 -32.207031 7.734375 -32.84375 C 8.328125 -33.257812 8.976562 -33.46875 9.6875 -33.46875 C 10.0625 -33.46875 10.460938 -33.425781 10.890625 -33.34375 C 11.097656 -33.257812 11.472656 -33.195312 12.015625 -33.15625 C 12.515625 -33.070312 13.039062 -32.988281 13.59375 -32.90625 C 14.050781 -32.863281 14.425781 -32.820312 14.71875 -32.78125 C 15.007812 -32.78125 15.285156 -32.738281 15.546875 -32.65625 C 15.796875 -32.613281 16.023438 -32.550781 16.234375 -32.46875 C 16.484375 -32.382812 16.753906 -32.253906 17.046875 -32.078125 Z M 11.328125 -26.109375 C 10.992188 -26.023438 10.59375 -25.5 10.125 -24.53125 C 9.664062 -23.570312 9.25 -22.503906 8.875 -21.328125 C 8.707031 -20.703125 8.5625 -20.070312 8.4375 -19.4375 C 8.300781 -18.851562 8.234375 -18.328125 8.234375 -17.859375 C 8.191406 -15.765625 8.632812 -14.148438 9.5625 -13.015625 C 10.53125 -11.929688 11.726562 -11.660156 13.15625 -12.203125 C 14.320312 -12.660156 15.328125 -13.5625 16.171875 -14.90625 C 17.003906 -16.289062 17.441406 -17.757812 17.484375 -19.3125 C 17.523438 -20.65625 17.296875 -21.914062 16.796875 -23.09375 C 16.253906 -24.257812 15.582031 -25.054688 14.78125 -25.484375 C 14.613281 -25.566406 14.425781 -25.648438 14.21875 -25.734375 C 14.007812 -25.816406 13.78125 -25.878906 13.53125 -25.921875 C 13.0625 -26.046875 12.617188 -26.109375 12.203125 -26.109375 C 11.785156 -26.148438 11.492188 -26.148438 11.328125 -26.109375 Z M 11.328125 -26.109375 "/></g></g></g><g fill="#c8ec43" fill-opacity="1"><g transform="translate(64.491122, 54.344885)"><g><path d="M 7.046875 -0.0625 C 5.828125 -0.5625 4.800781 -1.234375 3.96875 -2.078125 C 3.125 -2.867188 2.429688 -3.875 1.890625 -5.09375 C 1.171875 -6.601562 0.664062 -8.382812 0.375 -10.4375 C 0.125 -12.113281 0 -14.398438 0 -17.296875 L 0 -19.25 C 0.0390625 -21.300781 0.125 -23.671875 0.25 -26.359375 C 0.375 -29.085938 0.5625 -32.234375 0.8125 -35.796875 C 0.894531 -37.304688 0.976562 -38.628906 1.0625 -39.765625 C 1.15625 -40.847656 1.222656 -41.789062 1.265625 -42.59375 C 1.429688 -44.351562 1.597656 -45.421875 1.765625 -45.796875 C 1.972656 -46.210938 2.304688 -46.613281 2.765625 -47 C 3.398438 -47.457031 4.070312 -47.6875 4.78125 -47.6875 C 5.195312 -47.6875 5.640625 -47.582031 6.109375 -47.375 C 7.316406 -46.875 8.023438 -45.972656 8.234375 -44.671875 C 8.273438 -44.378906 8.253906 -43.664062 8.171875 -42.53125 C 8.128906 -41.351562 8.046875 -40.007812 7.921875 -38.5 C 7.835938 -37.070312 7.710938 -35.164062 7.546875 -32.78125 C 7.421875 -30.425781 7.296875 -28.328125 7.171875 -26.484375 C 6.960938 -21.703125 6.878906 -18.007812 6.921875 -15.40625 C 7.003906 -12.8125 7.253906 -10.800781 7.671875 -9.375 C 8.046875 -8.03125 8.53125 -7.171875 9.125 -6.796875 C 9.664062 -6.378906 10.546875 -6.253906 11.765625 -6.421875 C 12.554688 -6.546875 13.582031 -6.816406 14.84375 -7.234375 C 16.101562 -7.691406 17.382812 -8.238281 18.6875 -8.875 C 19.519531 -9.25 20.109375 -9.476562 20.453125 -9.5625 C 20.785156 -9.644531 21.160156 -9.664062 21.578125 -9.625 C 22.203125 -9.582031 22.726562 -9.4375 23.15625 -9.1875 C 23.570312 -8.976562 23.945312 -8.617188 24.28125 -8.109375 C 24.445312 -7.816406 24.550781 -7.546875 24.59375 -7.296875 C 24.675781 -7.085938 24.71875 -6.796875 24.71875 -6.421875 C 24.71875 -6.335938 24.695312 -6.253906 24.65625 -6.171875 C 24.65625 -5.117188 24.363281 -4.34375 23.78125 -3.84375 C 23.195312 -3.332031 21.769531 -2.597656 19.5 -1.640625 C 18.75 -1.347656 17.910156 -1.03125 16.984375 -0.6875 C 16.023438 -0.351562 15.25 -0.101562 14.65625 0.0625 C 13.738281 0.269531 13.046875 0.394531 12.578125 0.4375 C 12.328125 0.476562 12.035156 0.5 11.703125 0.5 C 11.328125 0.5 10.863281 0.476562 10.3125 0.4375 C 9.394531 0.394531 8.722656 0.351562 8.296875 0.3125 C 7.878906 0.226562 7.460938 0.101562 7.046875 -0.0625 Z M 7.046875 -0.0625 "/></g></g></g><g fill="#c8ec43" fill-opacity="1"><g transform="translate(94.276321, 54.344885)"><g><path d="M 23.78125 -1 C 23.445312 -1.132812 23.09375 -1.390625 22.71875 -1.765625 C 22.375 -2.097656 22.097656 -2.429688 21.890625 -2.765625 C 21.804688 -2.972656 21.722656 -3.394531 21.640625 -4.03125 C 21.554688 -4.65625 21.492188 -5.597656 21.453125 -6.859375 C 21.367188 -8.742188 21.285156 -10 21.203125 -10.625 C 21.160156 -11.257812 21.078125 -11.578125 20.953125 -11.578125 C 20.910156 -11.578125 20.804688 -11.410156 20.640625 -11.078125 C 20.429688 -10.773438 20.21875 -10.414062 20 -10 C 19.414062 -9 18.832031 -8.097656 18.25 -7.296875 C 17.613281 -6.503906 16.898438 -5.75 16.109375 -5.03125 C 14.972656 -3.9375 13.796875 -3.179688 12.578125 -2.765625 C 11.316406 -2.347656 10.101562 -2.285156 8.9375 -2.578125 C 6 -3.296875 3.835938 -5.8125 2.453125 -10.125 C 1.023438 -14.40625 0.226562 -20.925781 0.0625 -29.6875 C 0.0195312 -31.195312 0 -32.5625 0 -33.78125 C 0 -34.957031 0.0195312 -35.628906 0.0625 -35.796875 C 0.144531 -36.128906 0.394531 -36.53125 0.8125 -37 C 1.238281 -37.457031 1.640625 -37.75 2.015625 -37.875 C 2.429688 -38.082031 2.890625 -38.164062 3.390625 -38.125 C 3.898438 -38.125 4.363281 -38.019531 4.78125 -37.8125 C 5.664062 -37.394531 6.210938 -36.847656 6.421875 -36.171875 C 6.628906 -35.460938 6.773438 -33.765625 6.859375 -31.078125 C 6.984375 -26.878906 7.171875 -23.460938 7.421875 -20.828125 C 7.671875 -18.222656 8.070312 -15.875 8.625 -13.78125 C 8.875 -12.726562 9.164062 -11.804688 9.5 -11.015625 C 9.832031 -10.253906 10.125 -9.789062 10.375 -9.625 C 10.582031 -9.5 10.878906 -9.582031 11.265625 -9.875 C 11.679688 -10.164062 12.140625 -10.671875 12.640625 -11.390625 C 14.359375 -13.691406 15.867188 -17.003906 17.171875 -21.328125 C 18.429688 -25.691406 19.566406 -31.375 20.578125 -38.375 C 20.785156 -40.050781 20.972656 -41.140625 21.140625 -41.640625 C 21.304688 -42.109375 21.617188 -42.550781 22.078125 -42.96875 C 22.453125 -43.300781 22.875 -43.53125 23.34375 -43.65625 C 23.632812 -43.738281 23.925781 -43.78125 24.21875 -43.78125 L 24.90625 -43.78125 C 25.375 -43.695312 25.773438 -43.550781 26.109375 -43.34375 C 26.441406 -43.09375 26.816406 -42.71875 27.234375 -42.21875 C 27.359375 -42.09375 27.550781 -41.859375 27.8125 -41.515625 C 27.851562 -38.203125 27.894531 -33.234375 27.9375 -26.609375 C 27.976562 -22.367188 28.019531 -18.445312 28.0625 -14.84375 C 28.144531 -11.238281 28.207031 -8.890625 28.25 -7.796875 C 28.332031 -6.410156 28.375 -5.363281 28.375 -4.65625 L 28.375 -3.78125 C 28.289062 -3.101562 28.0625 -2.535156 27.6875 -2.078125 C 27.257812 -1.535156 26.671875 -1.15625 25.921875 -0.9375 C 25.546875 -0.851562 25.207031 -0.8125 24.90625 -0.8125 C 24.488281 -0.8125 24.113281 -0.875 23.78125 -1 Z M 23.78125 -1 "/></g></g></g><g fill="#c8ec43" fill-opacity="1"><g transform="translate(127.89872, 54.344885)"><g><path d="M 47.25 4.59375 C 46.488281 4.132812 46.003906 3.546875 45.796875 2.828125 C 45.585938 2.117188 45.546875 0.90625 45.671875 -0.8125 C 45.796875 -2.664062 45.898438 -4.492188 45.984375 -6.296875 C 46.066406 -8.097656 46.109375 -9.796875 46.109375 -11.390625 C 46.109375 -14.367188 46.003906 -16.820312 45.796875 -18.75 C 45.585938 -20.71875 45.296875 -21.742188 44.921875 -21.828125 C 44.503906 -21.953125 43.519531 -20.84375 41.96875 -18.5 C 40.375 -16.144531 38.820312 -13.457031 37.3125 -10.4375 C 35.71875 -7.25 34.5 -5.21875 33.65625 -4.34375 C 32.820312 -3.414062 31.734375 -2.992188 30.390625 -3.078125 C 29.460938 -3.160156 28.6875 -3.5 28.0625 -4.09375 C 27.425781 -4.71875 26.960938 -5.554688 26.671875 -6.609375 C 26.378906 -7.691406 26.191406 -9.328125 26.109375 -11.515625 C 26.023438 -13.691406 26.003906 -17.488281 26.046875 -22.90625 C 26.085938 -25.539062 26.085938 -27.929688 26.046875 -30.078125 C 26.003906 -32.210938 25.921875 -33.910156 25.796875 -35.171875 C 25.753906 -36.046875 25.710938 -36.609375 25.671875 -36.859375 C 25.585938 -37.117188 25.484375 -37.207031 25.359375 -37.125 C 25.234375 -36.988281 24.726562 -35.6875 23.84375 -33.21875 C 22.957031 -30.738281 21.890625 -27.53125 20.640625 -23.59375 C 19.628906 -20.613281 18.75 -18.015625 18 -15.796875 C 17.238281 -13.566406 16.546875 -11.65625 15.921875 -10.0625 C 14.785156 -7.125 13.796875 -5.050781 12.953125 -3.84375 C 12.160156 -2.625 11.257812 -1.765625 10.25 -1.265625 C 9.707031 -1.003906 9.144531 -0.851562 8.5625 -0.8125 C 8.007812 -0.8125 7.441406 -0.914062 6.859375 -1.125 C 5.222656 -1.757812 3.960938 -3.503906 3.078125 -6.359375 C 2.203125 -9.203125 1.425781 -14.085938 0.75 -21.015625 C 0.625 -22.148438 0.476562 -23.554688 0.3125 -25.234375 C 0.144531 -26.953125 0 -28.4375 -0.125 -29.6875 C -0.332031 -31.832031 -0.4375 -33.320312 -0.4375 -34.15625 L -0.4375 -34.609375 C -0.394531 -35.316406 -0.125 -35.921875 0.375 -36.421875 C 0.75 -36.847656 1.171875 -37.164062 1.640625 -37.375 C 2.054688 -37.539062 2.578125 -37.601562 3.203125 -37.5625 C 4.085938 -37.476562 4.800781 -37.160156 5.34375 -36.609375 C 5.894531 -36.066406 6.234375 -35.332031 6.359375 -34.40625 C 6.398438 -34.15625 6.503906 -33.234375 6.671875 -31.640625 C 6.835938 -30.046875 7.003906 -28.265625 7.171875 -26.296875 C 7.710938 -20.972656 8.113281 -17.238281 8.375 -15.09375 C 8.664062 -12.957031 8.894531 -11.890625 9.0625 -11.890625 C 9.1875 -11.847656 9.539062 -12.644531 10.125 -14.28125 C 10.71875 -15.914062 11.75 -18.976562 13.21875 -23.46875 C 14.894531 -28.582031 16.148438 -32.269531 16.984375 -34.53125 C 17.785156 -36.84375 18.5 -38.710938 19.125 -40.140625 C 20.007812 -42.191406 20.847656 -43.785156 21.640625 -44.921875 C 22.398438 -46.054688 23.238281 -46.894531 24.15625 -47.4375 C 24.613281 -47.6875 24.972656 -47.851562 25.234375 -47.9375 C 25.484375 -47.976562 25.835938 -48 26.296875 -48 L 26.421875 -48 C 29.023438 -47.957031 30.785156 -46.15625 31.703125 -42.59375 C 32.671875 -39.03125 33.09375 -32.613281 32.96875 -23.34375 L 32.96875 -18.9375 C 33.007812 -18.21875 33.070312 -17.859375 33.15625 -17.859375 C 33.195312 -17.859375 33.363281 -18.070312 33.65625 -18.5 C 33.945312 -18.914062 34.265625 -19.414062 34.609375 -20 C 35.984375 -22.351562 37.382812 -24.285156 38.8125 -25.796875 C 40.238281 -27.304688 41.625 -28.332031 42.96875 -28.875 C 43.550781 -29.125 44.015625 -29.269531 44.359375 -29.3125 C 44.691406 -29.351562 45.234375 -29.351562 45.984375 -29.3125 C 46.742188 -29.226562 47.269531 -29.144531 47.5625 -29.0625 C 47.851562 -28.976562 48.207031 -28.789062 48.625 -28.5 C 49.34375 -28.082031 49.953125 -27.515625 50.453125 -26.796875 C 50.992188 -26.085938 51.4375 -25.226562 51.78125 -24.21875 C 52.445312 -22.25 52.84375 -19.546875 52.96875 -16.109375 C 53.007812 -15.015625 53.03125 -13.796875 53.03125 -12.453125 C 53.03125 -9.640625 52.925781 -6.328125 52.71875 -2.515625 C 52.632812 -0.335938 52.550781 1.066406 52.46875 1.703125 C 52.425781 2.328125 52.320312 2.804688 52.15625 3.140625 C 51.90625 3.609375 51.65625 3.945312 51.40625 4.15625 C 51.144531 4.40625 50.785156 4.632812 50.328125 4.84375 C 49.953125 4.96875 49.554688 5.03125 49.140625 5.03125 L 48.8125 5.03125 C 48.226562 4.988281 47.707031 4.84375 47.25 4.59375 Z M 47.25 4.59375 "/></g></g></g><g fill="#c8ec43" fill-opacity="1"><g transform="translate(185.991136, 54.344885)"><g><path d="M 6.109375 0 C 4.890625 -0.375 3.859375 -1.023438 3.015625 -1.953125 C 2.179688 -2.828125 1.507812 -3.976562 1 -5.40625 C 0.539062 -6.625 0.25 -7.78125 0.125 -8.875 C 0.0390625 -9.914062 0 -11.96875 0 -15.03125 C 0 -17.257812 0.0195312 -18.9375 0.0625 -20.0625 C 0.101562 -21.15625 0.269531 -23.003906 0.5625 -25.609375 C 0.6875 -26.441406 0.8125 -27.425781 0.9375 -28.5625 C 1.0625 -29.695312 1.210938 -31 1.390625 -32.46875 C 1.554688 -33.84375 1.804688 -35.875 2.140625 -38.5625 C 1.972656 -38.726562 1.742188 -38.9375 1.453125 -39.1875 C 0.523438 -39.988281 0.0820312 -40.957031 0.125 -42.09375 C 0.207031 -43.257812 0.734375 -44.179688 1.703125 -44.859375 C 2.078125 -45.109375 3.414062 -45.421875 5.71875 -45.796875 C 8.03125 -46.210938 10.820312 -46.613281 14.09375 -47 C 15.5625 -47.164062 16.628906 -47.25 17.296875 -47.25 L 17.671875 -47.25 C 18.265625 -47.207031 18.832031 -46.953125 19.375 -46.484375 C 19.707031 -46.191406 20 -45.796875 20.25 -45.296875 C 20.507812 -44.753906 20.640625 -44.289062 20.640625 -43.90625 C 20.640625 -43.363281 20.445312 -42.78125 20.0625 -42.15625 C 19.6875 -41.5625 19.226562 -41.117188 18.6875 -40.828125 C 18.5625 -40.742188 18.078125 -40.640625 17.234375 -40.515625 C 16.359375 -40.347656 15.394531 -40.203125 14.34375 -40.078125 C 11.613281 -39.742188 10.082031 -39.515625 9.75 -39.390625 C 9.414062 -39.296875 9.207031 -38.957031 9.125 -38.375 C 9 -37.582031 8.875 -36.679688 8.75 -35.671875 C 8.625 -34.703125 8.5 -33.695312 8.375 -32.65625 L 7.796875 -27.5625 C 7.671875 -26.050781 7.628906 -25.296875 7.671875 -25.296875 C 7.710938 -25.296875 7.878906 -25.335938 8.171875 -25.421875 C 8.515625 -25.503906 8.894531 -25.628906 9.3125 -25.796875 C 10.613281 -26.128906 11.617188 -26.253906 12.328125 -26.171875 C 13.085938 -26.085938 13.738281 -25.753906 14.28125 -25.171875 C 14.90625 -24.492188 15.195312 -23.675781 15.15625 -22.71875 C 15.15625 -21.789062 14.800781 -20.992188 14.09375 -20.328125 C 13.882812 -20.109375 13.523438 -19.914062 13.015625 -19.75 C 12.515625 -19.539062 11.765625 -19.269531 10.765625 -18.9375 C 9.117188 -18.476562 8.066406 -18.144531 7.609375 -17.9375 C 7.148438 -17.675781 6.878906 -17.421875 6.796875 -17.171875 C 6.710938 -16.835938 6.671875 -15.914062 6.671875 -14.40625 C 6.710938 -12.894531 6.773438 -11.703125 6.859375 -10.828125 C 6.984375 -9.898438 7.128906 -9.082031 7.296875 -8.375 C 7.460938 -7.65625 7.648438 -7.171875 7.859375 -6.921875 C 8.066406 -6.671875 8.425781 -6.566406 8.9375 -6.609375 C 9.476562 -6.648438 10.148438 -6.859375 10.953125 -7.234375 C 11.867188 -7.691406 12.832031 -8.320312 13.84375 -9.125 C 14.84375 -9.875 16.035156 -10.941406 17.421875 -12.328125 C 18.765625 -13.628906 19.707031 -14.445312 20.25 -14.78125 C 20.800781 -15.070312 21.472656 -15.15625 22.265625 -15.03125 C 22.648438 -14.945312 22.945312 -14.863281 23.15625 -14.78125 C 23.40625 -14.65625 23.675781 -14.425781 23.96875 -14.09375 C 24.550781 -13.507812 24.90625 -12.859375 25.03125 -12.140625 C 25.082031 -11.972656 25.109375 -11.785156 25.109375 -11.578125 C 25.109375 -11.078125 24.976562 -10.550781 24.71875 -10 C 24.59375 -9.789062 24.15625 -9.3125 23.40625 -8.5625 C 22.644531 -7.757812 21.828125 -6.960938 20.953125 -6.171875 C 20.359375 -5.617188 19.789062 -5.09375 19.25 -4.59375 C 18.707031 -4.132812 18.269531 -3.753906 17.9375 -3.453125 C 15.707031 -1.773438 13.585938 -0.644531 11.578125 -0.0625 C 10.523438 0.226562 9.519531 0.375 8.5625 0.375 C 7.71875 0.375 6.898438 0.25 6.109375 0 Z M 6.109375 0 "/></g></g></g></g></g></g></svg>